<svg xmlns="http://www.w3.org/2000/svg" xmlns:xlink="http://www.w3.org/1999/xlink" width="500" zoomAndPan="magnify" viewBox="0 0 375 374.999991" height="500" preserveAspectRatio="xMidYMid meet" version="1.0"><defs><g/></defs><path fill="#eca922" d="M 115.644531 174.375 C 114.367188 170.6875 113.25 167.429688 112.109375 164.148438 C 117.003906 160.027344 122.363281 156.675781 125.886719 150.765625 C 119.351562 149.171875 114.308594 152.140625 109.03125 154.234375 C 107.785156 150.835938 106.71875 147.648438 105.460938 144.53125 C 104.878906 143.085938 104.160156 141.609375 103.113281 140.492188 C 102.378906 139.714844 101.007812 139.15625 99.929688 139.179688 C 98.578125 139.214844 97.90625 140.515625 97.789062 141.832031 C 97.648438 143.507812 97.523438 145.207031 97.671875 146.859375 C 98.078125 151.199219 98.636719 155.539062 99.148438 160.015625 C 98.160156 160.703125 97.089844 161.320312 96.160156 162.101562 C 92.8125 164.902344 89.371094 167.613281 86.246094 170.664062 C 84.953125 171.921875 84 173.828125 83.582031 175.597656 C 82.769531 179.097656 85.792969 181.507812 89.117188 180.191406 C 90.246094 179.738281 91.3125 179.0625 92.3125 178.355469 C 94.777344 176.597656 97.183594 174.734375 99.625 172.957031 C 100.300781 172.46875 101.054688 172.082031 101.996094 171.523438 C 102.949219 174.597656 103.777344 177.375 104.695312 180.132812 C 105.136719 181.4375 104.566406 182.183594 103.648438 183.007812 C 101.160156 185.265625 98.625 187.511719 96.371094 190 C 95.046875 191.46875 94.011719 193.292969 93.230469 195.121094 C 92.277344 197.367188 92.953125 199.507812 94.5 200.578125 C 95.988281 201.601562 97.765625 201.449219 99.742188 199.855469 C 102.101562 197.960938 104.332031 195.898438 106.648438 193.945312 C 107.285156 193.410156 108.019531 192.992188 108.878906 192.410156 C 109.984375 195.097656 110.773438 197.574219 111.984375 199.832031 C 113.9375 203.476562 116.097656 207.023438 118.34375 210.503906 C 119.085938 211.667969 120.109375 212.910156 122.421875 212.386719 C 122.78125 210.78125 123.351562 208.988281 123.550781 207.152344 C 124.039062 202.613281 123.257812 198.191406 121.933594 193.863281 C 120.886719 190.445312 119.875 187.023438 118.808594 183.496094 C 120.261719 182.320312 121.609375 181.308594 122.863281 180.203125 C 125.386719 177.980469 127.933594 175.769531 130.339844 173.421875 C 131.511719 172.269531 132.652344 170.929688 132.453125 168.640625 C 126.003906 168.046875 120.992188 171.40625 115.621094 174.386719 Z M 115.644531 174.375 " fill-opacity="1" fill-rule="nonzero"/><path fill="#eca922" d="M 228.304688 156.074219 C 214.421875 164.265625 203.65625 175.738281 194.230469 188.605469 C 193.054688 190.199219 192.066406 192.074219 191.53125 193.96875 C 190.523438 197.507812 193.335938 200.589844 196.960938 200.007812 C 198.34375 199.785156 199.796875 199.179688 200.9375 198.355469 C 202.644531 197.109375 204.261719 195.65625 205.621094 194.050781 C 209.480469 189.535156 213.515625 185.113281 216.898438 180.25 C 221.828125 173.175781 226.292969 165.765625 230.859375 158.445312 C 231.5 157.433594 232.652344 156.292969 231.429688 154.445312 C 230.371094 154.992188 229.300781 155.492188 228.292969 156.085938 Z M 228.304688 156.074219 " fill-opacity="1" fill-rule="nonzero"/><path fill="#eca922" d="M 166.296875 189.28125 C 165.96875 186.476562 165.945312 183.859375 165.308594 181.402344 C 164.539062 178.4375 162.15625 177.320312 159.261719 178.332031 C 155.878906 179.519531 152.496094 180.761719 149.253906 182.277344 C 147.148438 183.265625 145.21875 184.683594 143.347656 186.09375 C 142.5 186.730469 141.671875 187.753906 141.40625 188.757812 C 141.148438 189.6875 141.371094 191 141.882812 191.839844 C 142.546875 192.910156 143.847656 192.828125 144.917969 192.234375 C 146.289062 191.46875 147.566406 190.546875 148.925781 189.769531 C 151.320312 188.394531 153.75 187.09375 156.507812 185.578125 C 156.796875 188.628906 157.03125 191.058594 157.273438 193.65625 C 154.042969 196.003906 150.984375 198.085938 148.101562 200.390625 C 146.730469 201.484375 145.542969 202.917969 144.601562 204.40625 C 143.71875 205.800781 143.8125 207.453125 144.964844 208.816406 C 146.007812 210.0625 147.484375 210.457031 148.9375 209.945312 C 150.707031 209.316406 152.578125 208.617188 154.03125 207.464844 C 161.515625 201.554688 168.898438 195.503906 176.28125 189.464844 C 176.792969 189.046875 177.046875 188.324219 177.535156 187.570312 C 173.28125 186.695312 169.839844 188.847656 166.296875 189.28125 Z M 166.296875 189.28125 " fill-opacity="1" fill-rule="nonzero"/><path fill="#eca922" d="M 207.691406 161.449219 C 207.691406 161.191406 207.679688 160.925781 207.667969 160.667969 C 206.609375 160.34375 205.585938 159.902344 204.507812 159.726562 C 198.089844 158.667969 191.660156 157.632812 185.21875 156.667969 C 184.011719 156.480469 182.746094 156.539062 181.535156 156.710938 C 179.90625 156.933594 178.488281 157.609375 178.105469 159.457031 C 177.78125 161.0625 178.546875 162.785156 180.488281 163.449219 C 182.6875 164.195312 185.046875 164.707031 187.359375 164.777344 C 193.566406 164.949219 199.660156 163.820312 205.679688 162.390625 C 206.390625 162.226562 207.015625 161.773438 207.691406 161.449219 Z M 207.691406 161.449219 " fill-opacity="1" fill-rule="nonzero"/><path fill="#eca922" d="M 291.753906 131.917969 C 291.285156 125.074219 286.730469 122.550781 280.453125 125.25 C 276 127.171875 272.5 130.253906 269.640625 134.128906 C 268.992188 135.011719 268.339844 135.886719 267.398438 137.175781 C 266.582031 134.40625 265.921875 132.082031 265.210938 129.765625 C 264.015625 125.867188 262.457031 122.144531 259.691406 119.070312 C 255.238281 114.140625 249.460938 114.871094 246.738281 120.957031 C 245.484375 123.773438 244.625 126.9375 244.34375 130.007812 C 242.949219 145.542969 247.996094 159.226562 256.957031 171.628906 C 258.363281 173.570312 260.632812 174.875 262.457031 176.515625 C 263.167969 177.15625 263.992188 177.808594 264.375 178.632812 C 265.640625 181.355469 266.875 181.867188 269.128906 179.84375 C 271.023438 178.144531 272.828125 176.15625 274.058594 173.945312 C 278.71875 165.625 283.207031 157.191406 287.625 148.730469 C 288.867188 146.355469 289.925781 143.808594 290.554688 141.214844 C 291.285156 138.1875 291.972656 135 291.761719 131.941406 Z M 281.125 141.25 C 279.058594 145.855469 276.835938 150.394531 274.523438 154.886719 C 272.164062 159.46875 269.617188 163.960938 267.09375 168.59375 C 266.6875 168.359375 266.328125 168.277344 266.1875 168.058594 C 260.167969 158.46875 255.332031 148.371094 253.4375 137.105469 C 252.960938 134.269531 253.179688 131.289062 253.179688 128.378906 C 253.179688 127.785156 253.585938 127.183594 254.109375 125.761719 C 255.332031 128.402344 256.433594 130.324219 257.144531 132.382812 C 258.609375 136.628906 259.785156 140.96875 261.269531 145.21875 C 262.039062 147.414062 263.050781 149.589844 264.28125 151.570312 C 265.515625 153.558594 267.105469 153.617188 268.699219 151.941406 C 269.46875 151.152344 270.046875 150.148438 270.582031 149.171875 C 271.640625 147.195312 272.429688 145.042969 273.664062 143.179688 C 275.628906 140.203125 277.800781 137.351562 280.035156 134.558594 C 280.742188 133.675781 281.917969 133.175781 283.289062 132.207031 C 283.195312 135.816406 282.324219 138.609375 281.136719 141.238281 Z M 281.125 141.25 " fill-opacity="1" fill-rule="nonzero"/><g fill="#000000" fill-opacity="1"><g transform="translate(97.719045, 250.633421)"><g><path d="M 21.8125 0.0625 C 21.3125 0.300781 20.875 0.359375 20.5 0.234375 C 20.125 0.117188 19.804688 -0.09375 19.546875 -0.40625 C 19.285156 -0.726562 19.066406 -1.0625 18.890625 -1.40625 L 17.671875 -3.671875 C 16.578125 -3.648438 15.613281 -3.65625 14.78125 -3.6875 C 13.957031 -3.71875 13.148438 -3.75 12.359375 -3.78125 C 11.578125 -3.820312 10.710938 -3.832031 9.765625 -3.8125 C 8.828125 -3.800781 7.710938 -3.734375 6.421875 -3.609375 C 6.179688 -3.054688 5.867188 -2.492188 5.484375 -1.921875 C 5.109375 -1.359375 4.703125 -0.875 4.265625 -0.46875 C 3.828125 -0.0703125 3.390625 0.148438 2.953125 0.203125 C 2.515625 0.265625 2.128906 0.0664062 1.796875 -0.390625 C 1.316406 -1.066406 1.179688 -1.734375 1.390625 -2.390625 C 1.597656 -3.046875 1.898438 -3.691406 2.296875 -4.328125 C 2.773438 -5.140625 3.234375 -5.929688 3.671875 -6.703125 C 4.109375 -7.484375 4.550781 -8.328125 5 -9.234375 C 5.445312 -10.140625 5.925781 -11.175781 6.4375 -12.34375 C 6.957031 -13.519531 7.539062 -14.898438 8.1875 -16.484375 C 8.832031 -18.066406 9.554688 -19.929688 10.359375 -22.078125 C 10.492188 -22.441406 10.738281 -22.726562 11.09375 -22.9375 C 11.457031 -23.144531 11.859375 -23.269531 12.296875 -23.3125 C 12.734375 -23.363281 13.132812 -23.320312 13.5 -23.1875 C 13.875 -23.050781 14.148438 -22.8125 14.328125 -22.46875 C 14.460938 -22.25 14.671875 -21.816406 14.953125 -21.171875 C 15.234375 -20.523438 15.617188 -19.523438 16.109375 -18.171875 C 16.609375 -16.773438 17.085938 -15.5 17.546875 -14.34375 C 18.003906 -13.195312 18.476562 -12.070312 18.96875 -10.96875 C 19.457031 -9.863281 20.015625 -8.6875 20.640625 -7.4375 C 21.265625 -6.195312 22.003906 -4.78125 22.859375 -3.1875 C 23.054688 -2.832031 23.179688 -2.457031 23.234375 -2.0625 C 23.285156 -1.664062 23.210938 -1.28125 23.015625 -0.90625 C 22.828125 -0.539062 22.425781 -0.21875 21.8125 0.0625 Z M 8.0625 -7.1875 C 8.957031 -7.25 9.722656 -7.289062 10.359375 -7.3125 C 10.992188 -7.332031 11.582031 -7.34375 12.125 -7.34375 C 12.675781 -7.34375 13.269531 -7.335938 13.90625 -7.328125 C 14.539062 -7.316406 15.296875 -7.3125 16.171875 -7.3125 C 15.691406 -8.539062 15.128906 -9.96875 14.484375 -11.59375 C 13.835938 -13.21875 13 -15.253906 11.96875 -17.703125 C 11.769531 -17.097656 11.578125 -16.515625 11.390625 -15.953125 C 11.210938 -15.398438 10.988281 -14.765625 10.71875 -14.046875 C 10.457031 -13.335938 10.117188 -12.4375 9.703125 -11.34375 C 9.285156 -10.25 8.738281 -8.863281 8.0625 -7.1875 Z M 8.0625 -7.1875 "/></g></g></g><g fill="#000000" fill-opacity="1"><g transform="translate(122.269397, 250.633421)"><g><path d="M 4.78125 0 C 4.5 0.132812 4.144531 0.222656 3.71875 0.265625 C 3.289062 0.304688 2.894531 0.269531 2.53125 0.15625 C 2.175781 0.0507812 1.957031 -0.160156 1.875 -0.484375 C 1.738281 -0.796875 1.640625 -3.835938 1.578125 -9.609375 C 1.554688 -12.234375 1.503906 -14.34375 1.421875 -15.9375 C 1.347656 -17.53125 1.3125 -18.582031 1.3125 -19.09375 C 1.3125 -20.289062 1.429688 -21.210938 1.671875 -21.859375 C 1.910156 -22.503906 2.207031 -22.941406 2.5625 -23.171875 C 2.925781 -23.398438 3.300781 -23.5 3.6875 -23.46875 C 4.070312 -23.4375 4.410156 -23.34375 4.703125 -23.1875 C 5.003906 -23.03125 5.195312 -22.898438 5.28125 -22.796875 L 17.578125 -7.046875 L 17.609375 -14.796875 C 17.609375 -15.398438 17.628906 -16.125 17.671875 -16.96875 C 17.722656 -17.8125 17.785156 -18.671875 17.859375 -19.546875 C 17.929688 -20.421875 18.023438 -21.207031 18.140625 -21.90625 C 18.203125 -22.476562 18.375 -22.890625 18.65625 -23.140625 C 18.945312 -23.390625 19.539062 -23.492188 20.4375 -23.453125 C 21.15625 -23.429688 21.570312 -23.125 21.6875 -22.53125 C 21.8125 -21.9375 21.820312 -21.289062 21.71875 -20.59375 C 21.320312 -18.601562 21.066406 -16.644531 20.953125 -14.71875 C 20.847656 -12.800781 20.828125 -10.863281 20.890625 -8.90625 C 20.953125 -6.945312 21.039062 -4.921875 21.15625 -2.828125 C 21.195312 -2.273438 21.207031 -1.769531 21.1875 -1.3125 C 21.164062 -0.851562 21.003906 -0.503906 20.703125 -0.265625 C 20.410156 -0.0234375 19.863281 0.0625 19.0625 0 C 18.707031 -0.0390625 18.457031 -0.109375 18.3125 -0.203125 C 18.175781 -0.304688 18 -0.46875 17.78125 -0.6875 L 5.15625 -16.46875 C 5.125 -16.007812 5.113281 -15.269531 5.125 -14.25 C 5.144531 -13.226562 5.179688 -12.039062 5.234375 -10.6875 C 5.285156 -9.332031 5.351562 -7.921875 5.4375 -6.453125 C 5.53125 -4.992188 5.628906 -3.597656 5.734375 -2.265625 C 5.785156 -2.003906 5.765625 -1.625 5.671875 -1.125 C 5.585938 -0.632812 5.289062 -0.257812 4.78125 0 Z M 4.78125 0 "/></g></g></g><g fill="#000000" fill-opacity="1"><g transform="translate(145.37753, 250.633421)"><g><path d="M 3.015625 0.359375 C 2.160156 0.222656 1.734375 -0.472656 1.734375 -1.734375 C 1.734375 -3.359375 1.722656 -4.65625 1.703125 -5.625 C 1.679688 -6.59375 1.65625 -7.382812 1.625 -8 C 1.59375 -8.613281 1.554688 -9.148438 1.515625 -9.609375 C 1.484375 -10.066406 1.453125 -10.566406 1.421875 -11.109375 C 1.390625 -11.660156 1.363281 -12.375 1.34375 -13.25 C 1.320312 -14.125 1.3125 -15.269531 1.3125 -16.6875 C 1.3125 -18.394531 2.273438 -19.128906 4.203125 -18.890625 C 4.960938 -18.785156 5.34375 -18.46875 5.34375 -17.9375 C 5.363281 -16.144531 5.394531 -14.503906 5.4375 -13.015625 C 5.488281 -11.535156 5.515625 -9.910156 5.515625 -8.140625 C 5.515625 -6.910156 5.507812 -5.960938 5.5 -5.296875 C 5.488281 -4.628906 5.472656 -4.140625 5.453125 -3.828125 C 5.441406 -3.523438 5.429688 -3.285156 5.421875 -3.109375 C 5.410156 -2.941406 5.398438 -2.734375 5.390625 -2.484375 C 5.378906 -2.242188 5.375 -1.851562 5.375 -1.3125 C 5.375 -0.71875 5.238281 -0.300781 4.96875 -0.0625 C 4.695312 0.175781 4.378906 0.3125 4.015625 0.34375 C 3.648438 0.375 3.316406 0.378906 3.015625 0.359375 Z M 1.546875 -21.875 C 1.546875 -22.332031 1.707031 -22.726562 2.03125 -23.0625 C 2.3125 -23.382812 2.6875 -23.578125 3.15625 -23.640625 C 3.738281 -23.753906 4.238281 -23.644531 4.65625 -23.3125 C 5.070312 -23.007812 5.320312 -22.550781 5.40625 -21.9375 C 5.457031 -21.632812 5.488281 -21.347656 5.5 -21.078125 C 5.507812 -20.816406 5.414062 -20.601562 5.21875 -20.4375 C 5.101562 -20.320312 4.941406 -20.203125 4.734375 -20.078125 C 4.523438 -19.960938 4.238281 -19.882812 3.875 -19.84375 C 3.695312 -19.820312 3.5 -19.8125 3.28125 -19.8125 C 3.0625 -19.8125 2.820312 -19.84375 2.5625 -19.90625 C 2.164062 -20.019531 1.890625 -20.285156 1.734375 -20.703125 C 1.585938 -21.128906 1.523438 -21.519531 1.546875 -21.875 Z M 1.546875 -21.875 "/></g></g></g><g fill="#000000" fill-opacity="1"><g transform="translate(152.195245, 250.633421)"><g><path d="M 29.390625 0.484375 C 29.035156 0.484375 28.757812 0.394531 28.5625 0.21875 C 28.363281 0.0507812 28.210938 -0.195312 28.109375 -0.53125 L 22.921875 -16.171875 C 22.878906 -16.347656 22.78125 -16.441406 22.625 -16.453125 C 22.476562 -16.460938 22.359375 -16.390625 22.265625 -16.234375 C 21.804688 -15.421875 21.234375 -14.40625 20.546875 -13.1875 C 19.859375 -11.976562 19.15625 -10.425781 18.4375 -8.53125 C 18.0625 -7.632812 17.59375 -7.039062 17.03125 -6.75 C 16.476562 -6.46875 15.816406 -6.382812 15.046875 -6.5 C 14.703125 -6.539062 14.472656 -6.613281 14.359375 -6.71875 C 14.253906 -6.832031 14.125 -7.007812 13.96875 -7.25 L 9.734375 -17.21875 C 9.648438 -17.414062 9.523438 -17.507812 9.359375 -17.5 C 9.203125 -17.488281 9.085938 -17.394531 9.015625 -17.21875 C 8.796875 -16.5 8.523438 -15.582031 8.203125 -14.46875 C 7.890625 -13.351562 7.550781 -12.128906 7.1875 -10.796875 C 6.832031 -9.460938 6.492188 -8.125 6.171875 -6.78125 C 5.859375 -5.445312 5.59375 -4.203125 5.375 -3.046875 C 5.332031 -2.867188 5.253906 -2.582031 5.140625 -2.1875 C 5.035156 -1.800781 4.867188 -1.421875 4.640625 -1.046875 C 4.410156 -0.671875 4.109375 -0.410156 3.734375 -0.265625 C 3.410156 -0.128906 3.054688 -0.0976562 2.671875 -0.171875 C 2.285156 -0.253906 1.960938 -0.414062 1.703125 -0.65625 C 1.441406 -0.894531 1.3125 -1.164062 1.3125 -1.46875 C 1.3125 -1.863281 1.382812 -2.390625 1.53125 -3.046875 C 1.6875 -3.703125 1.921875 -4.609375 2.234375 -5.765625 C 2.554688 -6.929688 2.96875 -8.441406 3.46875 -10.296875 C 4.195312 -12.898438 4.742188 -14.988281 5.109375 -16.5625 C 5.484375 -18.132812 5.75 -19.171875 5.90625 -19.671875 C 6.226562 -20.859375 6.597656 -21.757812 7.015625 -22.375 C 7.429688 -23 7.851562 -23.414062 8.28125 -23.625 C 8.707031 -23.832031 9.101562 -23.910156 9.46875 -23.859375 C 9.84375 -23.804688 10.148438 -23.691406 10.390625 -23.515625 C 10.628906 -23.335938 10.785156 -23.195312 10.859375 -23.09375 L 15.84375 -12.859375 L 16.078125 -12.4375 C 16.835938 -14.175781 17.453125 -15.597656 17.921875 -16.703125 C 18.390625 -17.804688 18.710938 -18.566406 18.890625 -18.984375 C 19.429688 -20.171875 19.96875 -21.066406 20.5 -21.671875 C 21.039062 -22.285156 21.539062 -22.691406 22 -22.890625 C 22.46875 -23.085938 22.882812 -23.164062 23.25 -23.125 C 23.625 -23.082031 23.921875 -22.976562 24.140625 -22.8125 C 24.359375 -22.644531 24.488281 -22.507812 24.53125 -22.40625 L 30.015625 -6.359375 L 31.359375 -2.03125 C 31.578125 -1.175781 31.671875 -0.570312 31.640625 -0.21875 C 31.617188 0.125 31.429688 0.320312 31.078125 0.375 C 30.734375 0.425781 30.171875 0.460938 29.390625 0.484375 Z M 29.390625 0.484375 "/></g></g></g><g fill="#000000" fill-opacity="1"><g transform="translate(185.136636, 250.633421)"><g><path d="M 6.140625 -0.453125 C 5.015625 -0.566406 4.1875 -0.894531 3.65625 -1.4375 C 3.125 -1.988281 2.769531 -2.703125 2.59375 -3.578125 C 2.414062 -4.453125 2.332031 -5.4375 2.34375 -6.53125 C 2.351562 -7.625 2.359375 -8.78125 2.359375 -10 C 2.054688 -10.113281 1.835938 -10.269531 1.703125 -10.46875 C 1.546875 -10.632812 1.441406 -10.851562 1.390625 -11.125 C 1.335938 -11.40625 1.320312 -11.6875 1.34375 -11.96875 C 1.40625 -12.25 1.515625 -12.519531 1.671875 -12.78125 C 1.828125 -13.050781 2.046875 -13.296875 2.328125 -13.515625 C 2.304688 -14.890625 2.289062 -16.109375 2.28125 -17.171875 C 2.269531 -18.234375 2.273438 -19.132812 2.296875 -19.875 C 2.316406 -20.570312 2.363281 -21.191406 2.4375 -21.734375 C 2.519531 -22.285156 2.75 -22.710938 3.125 -23.015625 C 3.507812 -23.328125 4.160156 -23.460938 5.078125 -23.421875 L 5.34375 -23.390625 C 8.488281 -23.828125 11.601562 -23.847656 14.6875 -23.453125 L 17.8125 -22.828125 C 18.175781 -22.648438 18.5625 -22.40625 18.96875 -22.09375 C 19.375 -21.789062 19.566406 -21.398438 19.546875 -20.921875 C 19.546875 -20.546875 19.421875 -20.1875 19.171875 -19.84375 C 18.921875 -19.507812 18.421875 -19.421875 17.671875 -19.578125 L 14.71875 -19.78125 C 13.238281 -19.882812 11.800781 -19.894531 10.40625 -19.8125 C 9.019531 -19.738281 7.691406 -19.582031 6.421875 -19.34375 C 6.398438 -18.757812 6.382812 -18.035156 6.375 -17.171875 C 6.363281 -16.304688 6.367188 -15.394531 6.390625 -14.4375 C 8.648438 -14.582031 10.90625 -14.515625 13.15625 -14.234375 L 16.109375 -13.609375 C 16.472656 -13.429688 16.84375 -13.191406 17.21875 -12.890625 C 17.59375 -12.585938 17.78125 -12.191406 17.78125 -11.703125 C 17.757812 -11.335938 17.628906 -10.984375 17.390625 -10.640625 C 17.160156 -10.304688 16.695312 -10.210938 16 -10.359375 L 13.125 -10.5625 C 11.9375 -10.644531 10.789062 -10.664062 9.6875 -10.625 C 8.582031 -10.582031 7.519531 -10.492188 6.5 -10.359375 C 6.539062 -9.460938 6.566406 -8.609375 6.578125 -7.796875 C 6.585938 -6.992188 6.59375 -6.285156 6.59375 -5.671875 C 6.570312 -5.078125 6.734375 -4.640625 7.078125 -4.359375 C 7.429688 -4.078125 7.894531 -3.894531 8.46875 -3.8125 C 9.050781 -3.738281 9.675781 -3.734375 10.34375 -3.796875 C 11.007812 -3.867188 11.660156 -3.957031 12.296875 -4.0625 C 12.429688 -4.082031 12.753906 -4.117188 13.265625 -4.171875 C 13.773438 -4.234375 14.34375 -4.296875 14.96875 -4.359375 C 15.59375 -4.421875 16.15625 -4.46875 16.65625 -4.5 C 17.164062 -4.539062 17.484375 -4.550781 17.609375 -4.53125 C 18.222656 -4.4375 18.585938 -4.175781 18.703125 -3.75 C 18.828125 -3.320312 18.765625 -2.867188 18.515625 -2.390625 C 18.265625 -1.910156 17.851562 -1.539062 17.28125 -1.28125 C 16.738281 -1.019531 15.976562 -0.816406 15 -0.671875 C 14.03125 -0.523438 12.976562 -0.425781 11.84375 -0.375 C 10.707031 -0.320312 9.628906 -0.304688 8.609375 -0.328125 C 7.585938 -0.347656 6.765625 -0.390625 6.140625 -0.453125 Z M 6.140625 -0.453125 "/></g></g></g><g fill="#000000" fill-opacity="1"><g transform="translate(205.983129, 250.633421)"><g><path d="M 5.484375 -0.453125 C 4.335938 -0.566406 3.488281 -0.910156 2.9375 -1.484375 C 2.394531 -2.066406 2.035156 -2.8125 1.859375 -3.71875 C 1.691406 -4.625 1.609375 -5.648438 1.609375 -6.796875 C 1.609375 -7.953125 1.585938 -9.160156 1.546875 -10.421875 C 1.472656 -12.566406 1.414062 -14.425781 1.375 -16 C 1.332031 -17.570312 1.3125 -18.863281 1.3125 -19.875 C 1.3125 -20.570312 1.34375 -21.191406 1.40625 -21.734375 C 1.476562 -22.285156 1.703125 -22.710938 2.078125 -23.015625 C 2.460938 -23.328125 3.113281 -23.460938 4.03125 -23.421875 C 4.75 -23.398438 5.191406 -23.007812 5.359375 -22.25 C 5.523438 -21.5 5.566406 -20.597656 5.484375 -19.546875 C 5.429688 -18.828125 5.414062 -17.863281 5.4375 -16.65625 C 5.46875 -15.457031 5.515625 -14.171875 5.578125 -12.796875 C 5.640625 -11.429688 5.695312 -10.117188 5.75 -8.859375 C 5.8125 -7.609375 5.84375 -6.546875 5.84375 -5.671875 C 5.84375 -5.078125 6.015625 -4.640625 6.359375 -4.359375 C 6.710938 -4.078125 7.175781 -3.894531 7.75 -3.8125 C 8.332031 -3.738281 8.957031 -3.734375 9.625 -3.796875 C 10.289062 -3.867188 10.941406 -3.957031 11.578125 -4.0625 C 11.710938 -4.082031 12.035156 -4.117188 12.546875 -4.171875 C 13.054688 -4.234375 13.625 -4.296875 14.25 -4.359375 C 14.875 -4.421875 15.4375 -4.46875 15.9375 -4.5 C 16.4375 -4.539062 16.753906 -4.550781 16.890625 -4.53125 C 17.503906 -4.4375 17.875 -4.175781 18 -3.75 C 18.132812 -3.320312 18.078125 -2.867188 17.828125 -2.390625 C 17.578125 -1.910156 17.175781 -1.539062 16.625 -1.28125 C 16.082031 -1.019531 15.320312 -0.816406 14.34375 -0.671875 C 13.375 -0.523438 12.320312 -0.425781 11.1875 -0.375 C 10.050781 -0.320312 8.972656 -0.304688 7.953125 -0.328125 C 6.929688 -0.347656 6.109375 -0.390625 5.484375 -0.453125 Z M 5.484375 -0.453125 "/></g></g></g><g fill="#000000" fill-opacity="1"><g transform="translate(225.354626, 250.633421)"><g><path d="M 3.015625 0.359375 C 2.160156 0.222656 1.734375 -0.472656 1.734375 -1.734375 C 1.734375 -3.359375 1.722656 -4.65625 1.703125 -5.625 C 1.679688 -6.59375 1.65625 -7.382812 1.625 -8 C 1.59375 -8.613281 1.554688 -9.148438 1.515625 -9.609375 C 1.484375 -10.066406 1.453125 -10.566406 1.421875 -11.109375 C 1.390625 -11.660156 1.363281 -12.375 1.34375 -13.25 C 1.320312 -14.125 1.3125 -15.269531 1.3125 -16.6875 C 1.3125 -18.394531 2.273438 -19.128906 4.203125 -18.890625 C 4.960938 -18.785156 5.34375 -18.46875 5.34375 -17.9375 C 5.363281 -16.144531 5.394531 -14.503906 5.4375 -13.015625 C 5.488281 -11.535156 5.515625 -9.910156 5.515625 -8.140625 C 5.515625 -6.910156 5.507812 -5.960938 5.5 -5.296875 C 5.488281 -4.628906 5.472656 -4.140625 5.453125 -3.828125 C 5.441406 -3.523438 5.429688 -3.285156 5.421875 -3.109375 C 5.410156 -2.941406 5.398438 -2.734375 5.390625 -2.484375 C 5.378906 -2.242188 5.375 -1.851562 5.375 -1.3125 C 5.375 -0.71875 5.238281 -0.300781 4.96875 -0.0625 C 4.695312 0.175781 4.378906 0.3125 4.015625 0.34375 C 3.648438 0.375 3.316406 0.378906 3.015625 0.359375 Z M 1.546875 -21.875 C 1.546875 -22.332031 1.707031 -22.726562 2.03125 -23.0625 C 2.3125 -23.382812 2.6875 -23.578125 3.15625 -23.640625 C 3.738281 -23.753906 4.238281 -23.644531 4.65625 -23.3125 C 5.070312 -23.007812 5.320312 -22.550781 5.40625 -21.9375 C 5.457031 -21.632812 5.488281 -21.347656 5.5 -21.078125 C 5.507812 -20.816406 5.414062 -20.601562 5.21875 -20.4375 C 5.101562 -20.320312 4.941406 -20.203125 4.734375 -20.078125 C 4.523438 -19.960938 4.238281 -19.882812 3.875 -19.84375 C 3.695312 -19.820312 3.5 -19.8125 3.28125 -19.8125 C 3.0625 -19.8125 2.820312 -19.84375 2.5625 -19.90625 C 2.164062 -20.019531 1.890625 -20.285156 1.734375 -20.703125 C 1.585938 -21.128906 1.523438 -21.519531 1.546875 -21.875 Z M 1.546875 -21.875 "/></g></g></g><g fill="#000000" fill-opacity="1"><g transform="translate(232.172341, 250.633421)"><g><path d="M 21.09375 -4.03125 C 20.539062 -2.976562 19.738281 -2.144531 18.6875 -1.53125 C 17.644531 -0.925781 16.460938 -0.515625 15.140625 -0.296875 C 13.816406 -0.078125 12.453125 0 11.046875 -0.0625 C 9.648438 -0.125 8.3125 -0.304688 7.03125 -0.609375 C 5.75 -0.921875 4.640625 -1.3125 3.703125 -1.78125 C 2.765625 -2.257812 2.082031 -2.769531 1.65625 -3.3125 C 1.226562 -3.851562 1.179688 -4.398438 1.515625 -4.953125 L 1.734375 -5.34375 C 1.972656 -5.757812 2.3125 -6.007812 2.75 -6.09375 C 3.1875 -6.1875 3.613281 -6.113281 4.03125 -5.875 C 4.3125 -5.71875 4.789062 -5.519531 5.46875 -5.28125 C 6.15625 -5.039062 6.953125 -4.816406 7.859375 -4.609375 C 8.765625 -4.398438 9.710938 -4.234375 10.703125 -4.109375 C 11.703125 -3.992188 12.660156 -3.96875 13.578125 -4.03125 C 14.492188 -4.09375 15.296875 -4.285156 15.984375 -4.609375 C 16.671875 -4.941406 17.171875 -5.4375 17.484375 -6.09375 C 17.609375 -6.726562 17.394531 -7.242188 16.84375 -7.640625 C 16.300781 -8.035156 15.546875 -8.367188 14.578125 -8.640625 C 13.609375 -8.910156 12.53125 -9.164062 11.34375 -9.40625 C 10.164062 -9.65625 8.992188 -9.941406 7.828125 -10.265625 C 6.671875 -10.585938 5.640625 -11.003906 4.734375 -11.515625 C 3.828125 -12.035156 3.164062 -12.691406 2.75 -13.484375 C 2.46875 -14.003906 2.289062 -14.664062 2.21875 -15.46875 C 2.15625 -16.28125 2.238281 -17.128906 2.46875 -18.015625 C 2.707031 -18.898438 3.140625 -19.742188 3.765625 -20.546875 C 4.398438 -21.347656 5.285156 -22.015625 6.421875 -22.546875 C 7.566406 -23.078125 9 -23.390625 10.71875 -23.484375 C 11.46875 -23.523438 12.289062 -23.488281 13.1875 -23.375 C 14.082031 -23.269531 14.976562 -23.113281 15.875 -22.90625 C 16.769531 -22.695312 17.582031 -22.429688 18.3125 -22.109375 C 19.050781 -21.796875 19.640625 -21.457031 20.078125 -21.09375 C 20.515625 -20.738281 20.71875 -20.351562 20.6875 -19.9375 L 20.65625 -19.484375 C 20.632812 -19.046875 20.414062 -18.734375 20 -18.546875 C 19.59375 -18.359375 19.179688 -18.34375 18.765625 -18.5 C 18.472656 -18.601562 17.984375 -18.742188 17.296875 -18.921875 C 16.609375 -19.097656 15.8125 -19.257812 14.90625 -19.40625 C 14 -19.5625 13.0625 -19.664062 12.09375 -19.71875 C 11.132812 -19.78125 10.226562 -19.742188 9.375 -19.609375 C 8.519531 -19.484375 7.800781 -19.222656 7.21875 -18.828125 C 6.644531 -18.429688 6.296875 -17.863281 6.171875 -17.125 C 6.054688 -16.445312 6.242188 -15.859375 6.734375 -15.359375 C 7.234375 -14.867188 7.90625 -14.445312 8.75 -14.09375 C 9.601562 -13.75 10.507812 -13.460938 11.46875 -13.234375 C 12.4375 -13.003906 13.347656 -12.816406 14.203125 -12.671875 C 15.054688 -12.535156 15.722656 -12.421875 16.203125 -12.328125 C 17.578125 -12.003906 18.648438 -11.546875 19.421875 -10.953125 C 20.203125 -10.359375 20.75 -9.707031 21.0625 -9 C 21.382812 -8.289062 21.5625 -7.601562 21.59375 -6.9375 C 21.625 -6.269531 21.570312 -5.671875 21.4375 -5.140625 C 21.3125 -4.617188 21.195312 -4.25 21.09375 -4.03125 Z M 21.09375 -4.03125 "/></g></g></g><g fill="#000000" fill-opacity="1"><g transform="translate(255.083817, 250.633421)"><g><path d="M 11.96875 0.71875 C 11.03125 0.851562 10.3125 0.851562 9.8125 0.71875 C 9.320312 0.59375 9.066406 0.101562 9.046875 -0.75 C 9.046875 -1.476562 9.046875 -2.351562 9.046875 -3.375 C 9.046875 -4.40625 9.050781 -5.523438 9.0625 -6.734375 C 9.070312 -7.953125 9.078125 -9.160156 9.078125 -10.359375 C 9.109375 -11.804688 9.140625 -12.929688 9.171875 -13.734375 C 9.203125 -14.546875 9.226562 -15.191406 9.25 -15.671875 C 9.269531 -16.148438 9.269531 -16.632812 9.25 -17.125 L 9.1875 -19.484375 C 8.507812 -19.460938 7.847656 -19.414062 7.203125 -19.34375 C 6.554688 -19.28125 5.914062 -19.195312 5.28125 -19.09375 C 4.945312 -19.039062 4.550781 -19 4.09375 -18.96875 C 3.632812 -18.9375 3.1875 -18.957031 2.75 -19.03125 C 2.3125 -19.113281 1.972656 -19.285156 1.734375 -19.546875 C 1.335938 -19.941406 1.207031 -20.445312 1.34375 -21.0625 C 1.425781 -21.5 1.675781 -21.914062 2.09375 -22.3125 C 2.507812 -22.71875 3.125 -23 3.9375 -23.15625 C 7.71875 -23.675781 11.5 -23.726562 15.28125 -23.3125 L 18.828125 -22.859375 C 19.484375 -22.753906 19.984375 -22.53125 20.328125 -22.1875 C 20.679688 -21.84375 20.859375 -21.429688 20.859375 -20.953125 C 20.859375 -20.710938 20.796875 -20.457031 20.671875 -20.1875 C 20.554688 -19.914062 20.347656 -19.703125 20.046875 -19.546875 C 19.753906 -19.390625 19.328125 -19.359375 18.765625 -19.453125 L 12.828125 -19.515625 C 12.847656 -19.054688 12.875 -18.554688 12.90625 -18.015625 C 12.9375 -17.484375 12.96875 -16.78125 13 -15.90625 C 13.03125 -15.03125 13.0625 -13.859375 13.09375 -12.390625 C 13.113281 -11.210938 13.117188 -9.953125 13.109375 -8.609375 C 13.097656 -7.265625 13.09375 -5.925781 13.09375 -4.59375 C 13.09375 -3.257812 13.09375 -1.988281 13.09375 -0.78125 C 13.113281 -0.5 13.023438 -0.191406 12.828125 0.140625 C 12.628906 0.484375 12.34375 0.675781 11.96875 0.71875 Z M 11.96875 0.71875 "/></g></g></g></svg>